# xmcd
#
# Track frame offsets:
# 150
# 16714
# 36016
# 53193
# 79642
# 99529
# 115724
# 133445
# 150344
# 172126
# 201779
# 219012
# 236370
# 259434
#
# Disc length: 3690 seconds
#
# Revision: 0
# Processed by: cddbd v1.4PL0 Copyright (c) Steve Scherf et al.
# Submitted via: Audion 3.0.2 (http://www.panic.com/audion/)
#
DISCID=b20e680e
DTITLE=Tonio K. - Romeo Unchained
DYEAR=1900
DGENRE=
TTITLE0=True Confessions
TTITLE1=Perfect World
TTITLE2=Romeo and Jane
TTITLE3=You Belong With Me
TTITLE4=Impressed
TTITLE5=I Handle Snakes
TTITLE6=Emotional War Games
TTITLE7=Living Doll
TTITLE8=You Don't Belong Here
TTITLE9=You Will Go Free
TTITLE10=11
TTITLE11=12
TTITLE12=13
TTITLE13=14
EXTD=
EXTT0=
EXTT1=
EXTT2=
EXTT3=
EXTT4=
EXTT5=
EXTT6=
EXTT7=
EXTT8=
EXTT9=
EXTT10=
EXTT11=
EXTT12=
EXTT13=
PLAYORDER=
